<svg version="1.1" id="Layer_1" xmlns="http://www.w3.org/2000/svg" xmlns:xlink="http://www.w3.org/1999/xlink" x="0px" y="0px"
	 width="100%" viewBox="0 0 96 96" enable-background="new 0 0 96 96" xml:space="preserve">

<path fill="#FFFFFF" opacity="1.000000" stroke="none" 
	d="
M50.000000,89.000000 
	C41.168869,88.999992 32.837502,89.038078 24.506691,88.986290 
	C19.151545,88.953011 17.027184,86.901001 17.017242,81.616524 
	C16.976177,59.789036 16.971607,37.961361 17.021669,16.133911 
	C17.033026,11.183720 19.239498,9.034326 24.256372,9.018995 
	C40.751862,8.968594 57.247692,8.968605 73.743179,9.018989 
	C78.760323,9.034313 80.966965,11.183517 80.978325,16.133469 
	C81.028412,37.960922 81.023834,59.788597 80.982780,81.616089 
	C80.972839,86.901230 78.849091,88.949806 73.493736,88.986580 
	C65.829483,89.039207 58.164608,88.999992 50.000000,89.000000 
M31.576752,81.000000 
	C45.332764,81.000000 59.088776,81.000000 72.683945,81.000000 
	C72.683945,59.298954 72.683945,38.227840 72.683945,17.318434 
	C56.627594,17.318434 40.888912,17.318434 25.320637,17.318434 
	C25.320637,38.708633 25.320637,59.779198 25.320637,81.000000 
	C27.293629,81.000000 28.946686,81.000000 31.576752,81.000000 
z"/>

<path fill="#FFFFFF" opacity="1.000000" stroke="none" 
	d="
M58.905712,53.000000 
	C61.037605,53.000000 62.682522,53.000000 64.663422,53.000000 
	C64.663422,55.514317 64.663422,57.906422 64.663422,60.657616 
	C54.452965,60.657616 43.967381,60.657616 33.239063,60.657616 
	C33.239063,58.304924 33.239063,55.909851 33.239063,53.000000 
	C41.634365,53.000000 50.026554,53.000000 58.905712,53.000000 
z"/>
<path fill="#FFFFFF" opacity="1.000000" stroke="none" 
	d="
M36.185081,72.999878 
	C29.909866,73.304227 33.582981,67.802269 32.674671,65.201126 
	C43.737362,65.201126 54.101864,65.201126 64.733757,65.201126 
	C64.733757,67.644104 64.733757,70.040787 64.733757,72.999992 
	C54.430706,72.999992 46.049267,72.999992 36.185081,72.999878 
z"/>
<path fill="#FFFFFF" opacity="1.000000" stroke="none" 
	d="
M49.028538,37.527016 
	C52.967880,38.887962 53.515587,41.443405 52.708588,44.841873 
	C46.257088,44.841873 39.855434,44.841873 33.470913,44.841873 
	C32.723587,39.135025 34.268528,37.194798 39.829655,37.028339 
	C42.793255,36.939629 45.765541,37.141174 49.028538,37.527016 
z"/>
<path fill="#FFFFFF" opacity="1.000000" stroke="none" 
	d="
M48.987579,24.411308 
	C49.000828,32.509850 48.198055,33.312969 41.646633,33.037899 
	C38.302921,32.897507 36.596214,31.282522 37.090275,28.113464 
	C37.460018,25.741817 38.174763,21.947578 39.577560,21.514774 
	C42.682781,20.556725 46.860031,19.463556 48.987579,24.411308 
z"/>
</svg>